<?xml version="1.0" encoding="utf-8"?>
<!-- Generator: Adobe Illustrator 19.2.1, SVG Export Plug-In . SVG Version: 6.00 Build 0)  -->
<svg version="1.1" xmlns="http://www.w3.org/2000/svg" xmlns:xlink="http://www.w3.org/1999/xlink" x="0px" y="0px"
	 viewBox="0 0 1000 1000" style="enable-background:new 0 0 1000 1000;" xml:space="preserve">
<style type="text/css">
	.st0{display:none;}
	.st1{display:inline;fill:none;stroke:#000000;stroke-width:3;stroke-miterlimit:10;}
	.st2{fill:url(#SVGID_1_);}
	.st3{display:none;opacity:0.18;}
	.st4{display:inline;fill:none;stroke:#000000;stroke-miterlimit:10;}
	.st5{fill:none;stroke:#000000;stroke-miterlimit:10;}
	.st6{fill:url(#SVGID_2_);}
	.st7{fill:url(#SVGID_3_);}
	.st8{fill:url(#SVGID_4_);}
	.st9{fill:url(#SVGID_5_);}
	.st10{fill:url(#SVGID_6_);}
	.st11{fill:url(#SVGID_7_);}
	.st12{fill:url(#SVGID_8_);}
	.st13{fill:url(#SVGID_9_);}
	.st14{fill:none;stroke:#FFFFFF;stroke-width:6;stroke-miterlimit:10;}
	.st15{opacity:0.18;}
	.st16{fill:url(#SVGID_10_);}
	.st17{opacity:0.38;}
	.st18{fill:url(#SVGID_11_);}
	.st19{opacity:0.29;}
	.st20{fill:none;stroke:#000000;stroke-width:5;stroke-miterlimit:10;}
	.st21{display:inline;}
	.st22{fill:url(#SVGID_12_);}
	.st23{fill:url(#SVGID_13_);}
	.st24{fill:url(#SVGID_14_);}
	.st25{fill:url(#SVGID_15_);}
	.st26{fill:url(#SVGID_16_);}
	.st27{fill:url(#SVGID_17_);}
	.st28{fill:url(#SVGID_18_);}
	.st29{fill:url(#SVGID_19_);}
	.st30{fill:url(#SVGID_20_);}
	.st31{fill:url(#SVGID_21_);}
	.st32{fill:url(#SVGID_22_);}
	.st33{fill:url(#SVGID_23_);}
	.st34{fill:url(#SVGID_24_);}
	.st35{fill:url(#SVGID_25_);}
	.st36{fill:url(#SVGID_26_);}
	.st37{fill:url(#SVGID_27_);}
	.st38{fill:none;stroke:#FFFFFF;stroke-width:5;stroke-miterlimit:10;}
	.st39{fill:url(#SVGID_28_);}
	.st40{fill:url(#SVGID_29_);}
	.st41{fill:url(#SVGID_30_);}
	.st42{fill:url(#SVGID_31_);}
	.st43{fill:url(#SVGID_32_);}
	.st44{fill:url(#SVGID_33_);}
	.st45{fill:url(#SVGID_34_);}
	.st46{fill:url(#SVGID_35_);}
	.st47{fill:url(#SVGID_36_);}
	.st48{display:none;opacity:0.29;}
	.st49{display:inline;stroke:#000000;stroke-width:5;stroke-miterlimit:10;}
	.st50{display:inline;fill:none;stroke:#000000;stroke-width:5;stroke-miterlimit:10;}
	.st51{stroke:#FFFFFF;stroke-width:5;stroke-miterlimit:10;}
</style>
<g class="st0">
	<path class="st1" d="M914.2,0c-3.1,0-414.4,0.5-414.4,0.5L500,0C223.9,0,0,223.9,0,500l-0.5,0.5l0.5,414c0,0,0-0.1,0-0.1
		c0,47.4,38.4,85.7,85.8,85.7s85.8-38.5,85.8-85.9c0-1.2-0.1-207.1-0.1-327.8l414.2-0.5c0,0-0.1,0-0.1,0c47.4,0,85.7-38.4,85.7-85.8
		c0-47.4-38.5-85.8-85.9-85.8c-1.7,0-400.4,0.2-402.6,0.2c37.7-139.6,164.8-241.9,316.6-241.9l414-0.9c0.2,0,0.5,0,0.7,0
		c47.4,0,85.8-38.4,85.8-85.8S961.6,0,914.2,0z"/>
</g>
<g id="f">
	<linearGradient id="SVGID_1_" gradientUnits="userSpaceOnUse" x1="-99.9644" y1="849.9454" x2="849.8597" y2="-99.8786">
		<stop  offset="0" style="stop-color:#3498DB"/>
		<stop  offset="1" style="stop-color:#9B59B6"/>
	</linearGradient>
	<path class="st2" d="M914.2,0c-3.1,0-414.4,0.5-414.4,0.5L500,0C223.9,0,0,223.9,0,500l-0.5,0.5l0.5,414c0,0,0-0.1,0-0.1
		c0,47.4,38.4,85.7,85.8,85.7s85.8-38.5,85.8-85.9c0-1.2-0.1-207.1-0.1-327.8l414.2-0.5c0,0-0.1,0-0.1,0c47.4,0,85.7-38.4,85.7-85.8
		c0-47.4-38.5-85.8-85.9-85.8c-1.7,0-400.4,0.2-402.6,0.2c37.7-139.6,164.8-241.9,316.6-241.9l414-0.9c0.2,0,0.5,0,0.7,0
		c47.4,0,85.8-38.4,85.8-85.8S961.6,0,914.2,0z"/>
</g>
<g id="f_sketch" class="st3">
	<circle class="st4" cx="500" cy="500" r="500"/>
	<circle class="st4" cx="914.2" cy="85.8" r="85.8"/>
	<line class="st4" x1="-38.2" y1="500" x2="1054.2" y2="500"/>
	<line class="st4" x1="500" y1="1096.3" x2="500" y2="-59.3"/>
	<line class="st4" x1="172.1" y1="1014.9" x2="172.1" y2="-29.4"/>
	<line class="st4" x1="0" y1="1032" x2="0" y2="-109.7"/>
	<line class="st4" x1="1036.8" y1="171.6" x2="-38.2" y2="171.6"/>
	<line class="st4" x1="1054.2" y1="0" x2="-89" y2="0"/>
	<circle class="st4" cx="85.8" cy="914.2" r="85.8"/>
	<circle class="st4" cx="500.7" cy="500.5" r="328.9"/>
	<circle class="st4" cx="585.6" cy="500.1" r="85.8"/>
</g>
<g id="p">
</g>
<g id="p_sketch" class="st15">
</g>
<g id="d">
</g>
<g id="d_sketch" class="st17">
</g>
<g id="d2">
</g>
<g id="p2" class="st0">
</g>
<g id="f2">
</g>
<g id="p3">
</g>
<g id="Layer_12">
</g>
<g id="Layer_13">
</g>
</svg>
