<?xml version="1.0" encoding="utf-8"?>
<!-- Generator: Adobe Illustrator 19.2.1, SVG Export Plug-In . SVG Version: 6.00 Build 0)  -->
<svg version="1.1" id="Layer_1" xmlns="http://www.w3.org/2000/svg" xmlns:xlink="http://www.w3.org/1999/xlink" x="0px" y="0px"
	 viewBox="0 0 1143.2 1206" style="enable-background:new 0 0 1143.2 1206;" xml:space="preserve">
<style type="text/css">
	.st0{fill:none;stroke:#000000;stroke-width:6;stroke-miterlimit:10;}
	.st1{opacity:0.49;fill:none;stroke:#000000;stroke-width:3;stroke-miterlimit:10;}
</style>
<path class="st0" d="M1003.1,109.7c-3.1,0-414.4,0.5-414.4,0.5l0.2-0.5c-276.1,0-500,223.9-500,500l-0.5,0.5l0.5,414
	c0,0,0-0.1,0-0.1c0,47.4,38.4,85.7,85.8,85.7s85.8-38.5,85.8-85.9c0-1.2-0.1-207.1-0.1-327.8l414.2-0.5c0,0-0.1,0-0.1,0
	c47.4,0,85.7-38.4,85.7-85.8c0-47.4-38.5-85.8-85.9-85.8c-1.7,0-400.4,0.2-402.6,0.2c37.7-139.6,164.8-241.9,316.6-241.9l414-0.9
	c0.2,0,0.5,0,0.7,0c47.4,0,85.8-38.4,85.8-85.8S1050.5,109.7,1003.1,109.7z"/>
<circle class="st1" cx="589" cy="609.7" r="500"/>
<circle class="st1" cx="1003.1" cy="195.5" r="85.8"/>
<line class="st1" x1="50.8" y1="609.7" x2="1143.2" y2="609.7"/>
<line class="st1" x1="589" y1="1206" x2="589" y2="50.4"/>
<line class="st1" x1="261" y1="1124.6" x2="261" y2="80.3"/>
<line class="st1" x1="89" y1="1141.7" x2="89" y2="0"/>
<line class="st1" x1="1125.7" y1="281.3" x2="50.8" y2="281.3"/>
<line class="st1" x1="1143.2" y1="109.7" x2="0" y2="109.7"/>
<circle class="st1" cx="174.8" cy="1023.9" r="85.8"/>
<circle class="st1" cx="589.7" cy="610.2" r="328.9"/>
<circle class="st1" cx="674.5" cy="609.8" r="85.8"/>
</svg>
